<svg width="16" height="16" viewBox="0 0 16 16" fill="none" xmlns="http://www.w3.org/2000/svg">
<path d="M8.5 3.75355C6.36393 3.75355 4.66175 5.48911 4.66175 7.5918C4.66175 9.72787 6.36393 11.43 8.5 11.43C10.6027 11.43 12.3382 9.72787 12.3382 7.5918C12.3382 5.48911 10.6027 3.75355 8.5 3.75355ZM8.5 10.095C7.13158 10.095 5.9968 8.99359 5.9968 7.5918C5.9968 6.22338 7.09821 5.12197 8.5 5.12197C9.86842 5.12197 10.9698 6.22338 10.9698 7.5918C10.9698 8.99359 9.86842 10.095 8.5 10.095ZM13.3729 3.62005C13.3729 3.11941 12.9724 2.71889 12.4718 2.71889C11.9711 2.71889 11.5706 3.11941 11.5706 3.62005C11.5706 4.12069 11.9711 4.5212 12.4718 4.5212C12.9724 4.5212 13.3729 4.12069 13.3729 3.62005ZM15.9095 4.5212C15.8427 3.31966 15.5757 2.25163 14.7079 1.38385C13.8402 0.516075 12.7721 0.249066 11.5706 0.182314C10.3357 0.115562 6.63094 0.115562 5.39603 0.182314C4.19449 0.249066 3.15983 0.516075 2.25868 1.38385C1.3909 2.25163 1.12389 3.31966 1.05714 4.5212C0.990388 5.75611 0.990388 9.46086 1.05714 10.6958C1.12389 11.8973 1.3909 12.932 2.25868 13.8331C3.15983 14.7009 4.19449 14.9679 5.39603 15.0347C6.63094 15.1014 10.3357 15.1014 11.5706 15.0347C12.7721 14.9679 13.8402 14.7009 14.7079 13.8331C15.5757 12.932 15.8427 11.8973 15.9095 10.6958C15.9762 9.46086 15.9762 5.75611 15.9095 4.5212ZM14.3074 11.9974C14.0738 12.665 13.5398 13.1656 12.9056 13.4326C11.9044 13.8331 9.56803 13.733 8.5 13.733C7.39859 13.733 5.06227 13.8331 4.09436 13.4326C3.42684 13.1656 2.9262 12.665 2.65919 11.9974C2.25868 11.0295 2.35881 8.69321 2.35881 7.5918C2.35881 6.52376 2.25868 4.18744 2.65919 3.18616C2.9262 2.55201 3.42684 2.05137 4.09436 1.78436C5.06227 1.38385 7.39859 1.48398 8.5 1.48398C9.56803 1.48398 11.9044 1.38385 12.9056 1.78436C13.5398 2.018 14.0404 2.55201 14.3074 3.18616C14.7079 4.18744 14.6078 6.52376 14.6078 7.5918C14.6078 8.69321 14.7079 11.0295 14.3074 11.9974Z" fill="#7A7A7A"/>
</svg>
