<svg width="16" height="16" viewBox="0 0 16 16" fill="none" xmlns="http://www.w3.org/2000/svg">
<path d="M7.59981 4.37155C5.47109 4.37155 3.77476 6.10114 3.77476 8.1966C3.77476 10.3253 5.47109 12.0216 7.59981 12.0216C9.69527 12.0216 11.4249 10.3253 11.4249 8.1966C11.4249 6.10114 9.69527 4.37155 7.59981 4.37155ZM7.59981 10.6912C6.2361 10.6912 5.10521 9.59357 5.10521 8.1966C5.10521 6.83288 6.20284 5.73526 7.59981 5.73526C8.96352 5.73526 10.0611 6.83288 10.0611 8.1966C10.0611 9.59357 8.96352 10.6912 7.59981 10.6912ZM12.456 4.2385C12.456 3.73958 12.0568 3.34045 11.5579 3.34045C11.059 3.34045 10.6598 3.73958 10.6598 4.2385C10.6598 4.73742 11.059 5.13656 11.5579 5.13656C12.0568 5.13656 12.456 4.73742 12.456 4.2385ZM14.9838 5.13656C14.9173 3.93915 14.6512 2.87479 13.7864 2.01C12.9216 1.1452 11.8573 0.879113 10.6598 0.81259C9.42918 0.746068 5.73718 0.746068 4.50651 0.81259C3.3091 0.879113 2.278 1.1452 1.37995 2.01C0.515155 2.87479 0.249065 3.93915 0.182542 5.13656C0.11602 6.36723 0.11602 10.0592 0.182542 11.2899C0.249065 12.4873 0.515155 13.5184 1.37995 14.4165C2.278 15.2813 3.3091 15.5473 4.50651 15.6139C5.73718 15.6804 9.42918 15.6804 10.6598 15.6139C11.8573 15.5473 12.9216 15.2813 13.7864 14.4165C14.6512 13.5184 14.9173 12.4873 14.9838 11.2899C15.0503 10.0592 15.0503 6.36723 14.9838 5.13656ZM13.3873 12.5871C13.1544 13.2523 12.6223 13.7512 11.9903 14.0173C10.9925 14.4165 8.66417 14.3167 7.59981 14.3167C6.50219 14.3167 4.1739 14.4165 3.20932 14.0173C2.54409 13.7512 2.04517 13.2523 1.77908 12.5871C1.37995 11.6225 1.47973 9.29422 1.47973 8.1966C1.47973 7.13224 1.37995 4.80395 1.77908 3.80611C2.04517 3.17414 2.54409 2.67522 3.20932 2.40913C4.1739 2.01 6.50219 2.10978 7.59981 2.10978C8.66417 2.10978 10.9925 2.01 11.9903 2.40913C12.6223 2.64196 13.1212 3.17414 13.3873 3.80611C13.7864 4.80395 13.6866 7.13224 13.6866 8.1966C13.6866 9.29422 13.7864 11.6225 13.3873 12.5871Z" fill="white"/>
</svg>
