<svg width="210" height="44" viewBox="0 0 210 44" fill="none" xmlns="http://www.w3.org/2000/svg">
<g clip-path="url(#clip0_447_2481)">
<path d="M23.8819 29.548C23.8819 25.8802 23.8819 22.4024 23.8819 18.9264C23.8819 18.7042 23.902 18.482 23.8782 18.2635C23.8325 17.8343 23.9458 17.65 24.4173 17.6576C26.1809 17.688 27.9462 17.6918 29.7115 17.6576C30.2433 17.6462 30.2909 17.8855 30.289 18.3281C30.2762 21.2684 30.2817 24.2088 30.2817 27.1491C30.2817 30.437 30.2817 33.7249 30.2817 37.0147C30.2817 37.8524 30.3694 37.8201 29.4849 37.8201C28.054 37.8201 26.6249 37.8068 25.194 37.8258C24.7189 37.8315 24.3278 37.7004 23.9221 37.4345C18.4104 33.8028 12.8877 30.1901 7.36691 26.5716C7.11472 26.4064 6.86436 26.243 6.55186 26.0379C6.33987 26.4083 6.4148 26.754 6.4148 27.0731C6.40749 30.2983 6.41114 33.5236 6.41114 36.7488C6.41114 36.9387 6.39835 37.1287 6.41297 37.3186C6.44038 37.6681 6.33256 37.8296 5.95975 37.8258C4.1341 37.8106 2.30844 37.8125 0.482787 37.8258C0.109981 37.8277 0.00581414 37.6491 0.0295714 37.3034C0.0423638 37.1154 0.0313989 36.9235 0.0313989 36.7336C0.0313989 30.7257 0.0313989 24.7178 0.0313989 18.7118C0.0313989 18.4896 0.0387088 18.2692 0.0313989 18.047C0.0222615 17.7545 0.173943 17.669 0.42979 17.6709C2.10376 17.6747 3.77591 17.6766 5.44989 17.6709C5.8501 17.6709 6.1224 17.9387 6.42211 18.1344C11.9192 21.7357 17.4126 25.3427 22.9078 28.9478C23.182 29.1283 23.4634 29.2935 23.8819 29.5518V29.548Z" fill="#2E2E2E"/>
<path d="M89.7117 13.3197C90.1923 13.0538 90.5066 12.615 90.874 12.2484C92.8915 10.235 94.8981 8.21023 96.8992 6.18163C97.2135 5.86253 97.5187 5.66879 98.003 5.67449C100.587 5.70678 103.173 5.68968 105.757 5.69158C105.874 5.69158 105.991 5.70678 106.281 5.72957C100.768 11.633 95.344 17.4377 89.8725 23.2955C82.5169 15.8212 75.196 8.38497 67.8623 0.933507C68.0761 0.677083 68.332 0.78915 68.5494 0.78725C71.1646 0.777753 73.7797 0.804345 76.3948 0.764457C77.0015 0.75496 77.4127 0.973395 77.8257 1.38937C81.6434 5.23952 85.4738 9.07827 89.3005 12.9189C89.4303 13.05 89.5655 13.1753 89.7117 13.3197Z" fill="#2E2E2E"/>
<path d="M111.861 13.5152C108.412 17.3957 104.976 21.263 101.469 25.21C107.168 31.0792 112.86 36.9409 118.589 42.8424C118.171 43.0001 117.813 43.0476 117.451 43.0647C115.689 43.1482 113.929 43.228 112.168 43.3192C111.592 43.3496 111.016 43.3933 110.444 43.4654C109.982 43.5243 109.657 43.3591 109.326 43.0153C106.804 40.4055 104.26 37.8184 101.725 35.2219C98.5839 32.0043 95.4443 28.7828 92.3046 25.5614C92.1968 25.4512 92.0707 25.3563 92.0342 25.153C93.7593 23.3144 95.4954 21.4586 97.237 19.6086C99.0243 17.7092 100.821 15.823 102.597 13.9122C102.961 13.5209 103.339 13.3519 103.869 13.3576C106.303 13.3842 108.737 13.3671 111.172 13.3728C111.371 13.3728 111.586 13.2949 111.861 13.5133V13.5152Z" fill="#2E2E2E"/>
<path d="M78.5396 25.271C76.0341 22.6897 73.5615 20.1406 71.0871 17.5935C71.2552 17.4112 71.4453 17.4833 71.6134 17.4833C74.1372 17.4776 76.6628 17.4871 79.1865 17.4719C79.6013 17.47 79.9266 17.5536 80.2428 17.867C86.7322 24.3004 93.2325 30.7224 99.7293 37.1481C99.817 37.2355 99.8937 37.3324 99.976 37.4255C99.8754 37.68 99.6635 37.5717 99.5045 37.5736C96.7669 37.5812 94.0293 37.566 91.2936 37.5907C90.8257 37.5945 90.5005 37.4406 90.1752 37.1158C87.9767 34.9334 85.7654 32.7661 83.556 30.5951C83.0663 30.1145 83.0571 30.1145 82.5838 30.6407C80.6485 32.7832 78.7114 34.9239 76.7888 37.0779C76.5074 37.3932 76.2424 37.5945 75.7892 37.5907C73.0827 37.566 70.3762 37.5793 67.6697 37.5755C67.5601 37.5755 67.4267 37.6287 67.3115 37.4122C71.014 33.4101 74.7311 29.3909 78.5432 25.271H78.5396Z" fill="#2E2E2E"/>
<path d="M114.446 18.0493C116.977 18.0493 119.402 18.0607 121.826 18.0398C122.262 18.036 122.383 18.3551 122.566 18.6267C124.033 20.7959 125.493 22.9688 126.955 25.1418C128.105 26.8494 129.249 28.5588 130.406 30.2607C130.576 30.5096 130.683 30.8268 131.02 30.9787C131.197 30.728 131.38 30.4792 131.551 30.2227C134.119 26.3897 136.698 22.5623 139.238 18.7122C139.572 18.2051 139.91 18.0265 140.491 18.036C142.737 18.0721 144.985 18.0512 147.235 18.0512C147.324 18.3779 147.083 18.528 146.952 18.7179C142.675 24.891 138.388 31.0547 134.121 37.2354C133.821 37.6685 133.518 37.8452 133.008 37.8319C131.55 37.7977 130.089 37.8148 128.629 37.8243C128.278 37.8262 128.019 37.7673 127.785 37.4292C123.401 31.0642 119.002 24.7125 114.605 18.3551C114.57 18.3057 114.549 18.2487 114.444 18.0512L114.446 18.0493Z" fill="#2E2E2E"/>
<path d="M209.787 37.8165C209.365 37.8165 209.062 37.8165 208.76 37.8165C200.946 37.8165 193.131 37.8165 185.317 37.8165C185.134 37.8165 184.952 37.8013 184.771 37.8184C184.425 37.8506 184.255 37.7196 184.288 37.3397C184.305 37.1516 184.29 36.9617 184.29 36.7718C184.29 30.8949 184.29 25.0181 184.29 19.1413C184.29 19.014 184.288 18.8886 184.29 18.7614C184.305 18.0586 184.305 18.0491 184.997 18.0472C186.638 18.0415 188.281 18.0491 189.922 18.0434C190.706 18.0396 190.615 18.0472 190.615 18.7576C190.615 22.6761 190.615 26.5927 190.615 30.5112C190.615 31.2976 191.005 31.6908 191.786 31.6908C197.442 31.6908 203.097 31.6908 208.753 31.6908C208.965 31.6908 209.18 31.706 209.391 31.687C209.729 31.6566 209.793 31.8389 209.791 32.141C209.783 34.0024 209.787 35.8638 209.787 37.8127V37.8165Z" fill="#2E2E2E"/>
<path d="M63.0524 22.564V17.7014H42.1295H35.7607V22.564V25.3466V30.2092V32.9937V35.425V37.8563H63.0524V32.9937H42.1295V30.2092H60.4464V25.3466H42.1295V22.564H63.0524Z" fill="#2E2E2E"/>
<path d="M178.679 22.564V17.7014H157.757H151.39V22.564V25.3466V30.2092V32.9937V35.425V37.8563H178.679V32.9937H157.757V30.2092H176.073V25.3466H157.757V22.564H178.679Z" fill="#2E2E2E"/>
</g>
<defs>
<clipPath id="clip0_447_2481">
<rect width="209.766" height="42.7125" fill="white" transform="translate(0.0341797 0.764404)"/>
</clipPath>
</defs>
</svg>
